# xmcd
#
# Track frame offsets:
#	150
#	13407
#	25995
#	39315
#	48166
#	59764
#	70079
#	80616
#	93155
#	104401
#	115414
#	125532
#	139024
#	150453
#	161757
#	171916
#	182479
#	194439
#	206388
#	218603
#
# Disc length: 3062 seconds
#
# Revision: 0
# Processed by: cddbd v1.5.2PL0 Copyright (c) Steve Scherf et al.
# Submitted via: audiograbber 1.83.01
#
DISCID=160bf414
DTITLE=Various Artist - Country and Western - 200 No.1 - Hits (1944-1962) - CD5
DYEAR=2016
DGENRE=Country
TTITLE0=Kitty Wells and Red Foley - One By One (1954)
TTITLE1=Webb Pierce - Even Tho (1954)
TTITLE2=Hank Snow - I Don't Hurt Anymore (1954)
TTITLE3=Johnnie and Jack - (Oh Baby Mine) I Get So Lonely (1954)
TTITLE4=Eddy Arnold - I Really Don't Want To Know (1954)
TTITLE5=Hank Thompson - Wake Up, Irene (1954)
TTITLE6=Webb Pierce - Slowly (1954)
TTITLE7=Jim Reeves - Bimbo (1954)
TTITLE8=Hank Locklin - Let Me Be The One (1953)
TTITLE9=Mitchell Torok - Caribbean (1953)
TTITLE10=Webb Pierce - There Stands The Glass (1953)
TTITLE11=Davis Sisters - I Forgot More Than You'll Ever Know (1953)
TTITLE12=Jean Shepard and Ferlin Huskey - A Dear John Letter (1953)
TTITLE13=Carl Smith - Hey Joe! (1953)
TTITLE14=Hank Thompson - Rub-A-Dub-Dub (1953)
TTITLE15=Webb Pierce - It's Been So Long (1953)
TTITLE16=Hank Williams - Take These Chains From My Heart (1953)
TTITLE17=Jim Reeves - Mexican Joe (1953)
TTITLE18=Hank Williams - Your Cheatin' Heart (1953)
TTITLE19=Hank Williams - Kaw-Liga (1953)
EXTD=
EXTT0=
EXTT1=
EXTT2=
EXTT3=
EXTT4=
EXTT5=
EXTT6=
EXTT7=
EXTT8=
EXTT9=
EXTT10=
EXTT11=
EXTT12=
EXTT13=
EXTT14=
EXTT15=
EXTT16=
EXTT17=
EXTT18=
EXTT19=
PLAYORDER=
